<svg width="32" height="33" viewBox="0 0 32 33" fill="none" xmlns="http://www.w3.org/2000/svg">
<g clip-path="url(#clip0_99_21345)">
<path d="M7.70875 25.7142L2 16.1992L7.70875 6.68422C7.79766 6.53624 7.92336 6.41379 8.07363 6.3288C8.2239 6.24381 8.39361 6.19917 8.56625 6.19922H27C27.2652 6.19922 27.5196 6.30458 27.7071 6.49211C27.8946 6.67965 28 6.934 28 7.19922V25.1992C28 25.4644 27.8946 25.7188 27.7071 25.9063C27.5196 26.0939 27.2652 26.1992 27 26.1992H8.56625C8.39361 26.1993 8.2239 26.1546 8.07363 26.0696C7.92336 25.9846 7.79766 25.8622 7.70875 25.7142Z" stroke="#0E0304" stroke-width="1.5" stroke-linecap="round" stroke-linejoin="round"/>
<path d="M20 13.1992L14 19.1992" stroke="#0E0304" stroke-width="1.5" stroke-linecap="round" stroke-linejoin="round"/>
<path d="M20 19.1992L14 13.1992" stroke="#0E0304" stroke-width="1.5" stroke-linecap="round" stroke-linejoin="round"/>
</g>
<defs>
<clipPath id="clip0_99_21345">
<rect width="32" height="32" fill="white" transform="translate(0 0.199219)"/>
</clipPath>
</defs>
</svg>
