<svg width="33" height="32" viewBox="0 0 33 32" fill="none" xmlns="http://www.w3.org/2000/svg">
<g clip-path="url(#clip0_29_3088)">
<path d="M16.5 21V28" stroke="#0E0304" stroke-width="2" stroke-linecap="round" stroke-linejoin="round"/>
<path d="M6.10625 10C4.78547 12.2876 4.25644 14.9472 4.60119 17.5661C4.94594 20.1851 6.14521 22.6171 8.01302 24.485C9.88082 26.3529 12.3128 27.5524 14.9317 27.8973C17.5506 28.2422 20.2102 27.7133 22.4979 26.3927C24.7857 25.072 26.5737 23.0334 27.5848 20.593C28.5958 18.1526 28.7734 15.4468 28.0899 12.8952C27.4065 10.3436 25.9002 8.08882 23.8047 6.48053C21.7092 4.87224 19.1415 4.00032 16.5 4V11C17.6006 11.0002 18.6704 11.3636 19.5435 12.0338C20.4165 12.704 21.044 13.6436 21.3287 14.7067C21.6134 15.7699 21.5393 16.8973 21.118 17.9141C20.6967 18.9309 19.9516 19.7802 18.9984 20.3304C18.0452 20.8806 16.937 21.1009 15.8458 20.9572C14.7546 20.8134 13.7414 20.3136 12.9631 19.5353C12.1849 18.757 11.6853 17.7437 11.5416 16.6525C11.398 15.5613 11.6184 14.4532 12.1687 13.5L6.10625 10Z" stroke="#0E0304" stroke-width="2" stroke-linecap="round" stroke-linejoin="round"/>
<path d="M11.6687 17.2949L4.90625 19.1062" stroke="#0E0304" stroke-width="2" stroke-linecap="round" stroke-linejoin="round"/>
</g>
<defs>
<clipPath id="clip0_29_3088">
<rect width="32" height="32" fill="white" transform="translate(0.5)"/>
</clipPath>
</defs>
</svg>
