<svg width="32" height="33" viewBox="0 0 32 33" fill="none" xmlns="http://www.w3.org/2000/svg">
<g clip-path="url(#clip0_55_5671)">
<path d="M16 17.4492C16.6904 17.4492 17.25 16.8896 17.25 16.1992C17.25 15.5089 16.6904 14.9492 16 14.9492C15.3096 14.9492 14.75 15.5089 14.75 16.1992C14.75 16.8896 15.3096 17.4492 16 17.4492Z" fill="#0E0304"/>
<path d="M10.5 17.4492C11.1904 17.4492 11.75 16.8896 11.75 16.1992C11.75 15.5089 11.1904 14.9492 10.5 14.9492C9.80964 14.9492 9.25 15.5089 9.25 16.1992C9.25 16.8896 9.80964 17.4492 10.5 17.4492Z" fill="#0E0304"/>
<path d="M21.5 17.4492C22.1904 17.4492 22.75 16.8896 22.75 16.1992C22.75 15.5089 22.1904 14.9492 21.5 14.9492C20.8096 14.9492 20.25 15.5089 20.25 16.1992C20.25 16.8896 20.8096 17.4492 21.5 17.4492Z" fill="#0E0304"/>
<path d="M9.99133 26.5872C12.512 28.046 15.4772 28.5384 18.3341 27.9725C21.1909 27.4065 23.7445 25.821 25.5187 23.5113C27.2929 21.2017 28.1665 18.3257 27.9768 15.4195C27.7871 12.5133 26.5469 9.77528 24.4876 7.71591C22.4282 5.65654 19.6902 4.41639 16.784 4.22667C13.8778 4.03696 11.0018 4.91063 8.69214 6.6848C6.38252 8.45897 4.79694 11.0125 4.23103 13.8694C3.66511 16.7263 4.15748 19.6915 5.61633 22.2122L4.05258 26.8809C3.99382 27.0571 3.9853 27.2462 4.02796 27.4269C4.07062 27.6077 4.16278 27.773 4.29411 27.9044C4.42545 28.0357 4.59077 28.1279 4.77154 28.1705C4.95231 28.2132 5.14139 28.2047 5.31758 28.1459L9.99133 26.5872Z" stroke="#0E0304" stroke-width="1.5" stroke-linecap="round" stroke-linejoin="round"/>
</g>
<defs>
<clipPath id="clip0_55_5671">
<rect width="32" height="32" fill="white" transform="translate(0 0.199219)"/>
</clipPath>
</defs>
</svg>
