<svg width="32" height="33" viewBox="0 0 32 33" fill="none" xmlns="http://www.w3.org/2000/svg">
<g clip-path="url(#clip0_72_12173)">
<path d="M16 3.19922V29.1992" stroke="black" stroke-width="1.5" stroke-linecap="round" stroke-linejoin="round"/>
<path d="M23 11.1992C23 10.5426 22.8707 9.89243 22.6194 9.2858C22.3681 8.67917 21.9998 8.12798 21.5355 7.66368C21.0712 7.19939 20.52 6.83109 19.9134 6.57982C19.3068 6.32855 18.6566 6.19922 18 6.19922H14C12.6739 6.19922 11.4021 6.726 10.4645 7.66368C9.52678 8.60137 9 9.87314 9 11.1992C9 12.5253 9.52678 13.7971 10.4645 14.7348C11.4021 15.6724 12.6739 16.1992 14 16.1992H19C20.3261 16.1992 21.5979 16.726 22.5355 17.6637C23.4732 18.6014 24 19.8731 24 21.1992C24 22.5253 23.4732 23.7971 22.5355 24.7348C21.5979 25.6724 20.3261 26.1992 19 26.1992H13C11.6739 26.1992 10.4021 25.6724 9.46447 24.7348C8.52678 23.7971 8 22.5253 8 21.1992" stroke="black" stroke-width="1.5" stroke-linecap="round" stroke-linejoin="round"/>
</g>
<defs>
<clipPath id="clip0_72_12173">
<rect width="32" height="32" fill="white" transform="translate(0 0.199219)"/>
</clipPath>
</defs>
</svg>
