<svg width="33" height="32" viewBox="0 0 33 32" fill="none" xmlns="http://www.w3.org/2000/svg">
<g clip-path="url(#clip0_22_1598)">
<path d="M4.76259 7.6725C4.63247 7.5293 4.54668 7.35142 4.51564 7.16044C4.4846 6.96946 4.50963 6.77357 4.58769 6.59652C4.66576 6.41948 4.79352 6.26889 4.95546 6.16301C5.11741 6.05713 5.3066 6.0005 5.50009 6H27.5001C27.6938 6.00002 27.8833 6.05629 28.0456 6.16199C28.208 6.26768 28.3361 6.41825 28.4145 6.59538C28.4929 6.77252 28.5181 6.96861 28.4871 7.15982C28.4562 7.35104 28.3704 7.52914 28.2401 7.6725L19.5001 17V24.3312C19.5002 24.4959 19.4596 24.6581 19.382 24.8033C19.3044 24.9485 19.1921 25.0724 19.0551 25.1637L15.0551 27.83C14.9046 27.9304 14.7298 27.9881 14.5491 27.9969C14.3685 28.0058 14.1888 27.9655 14.0292 27.8803C13.8696 27.7952 13.7362 27.6683 13.643 27.5133C13.5498 27.3583 13.5004 27.1809 13.5001 27V17L4.76259 7.6725Z" stroke="#0E0304" stroke-width="1.5" stroke-linecap="round" stroke-linejoin="round"/>
</g>
<defs>
<clipPath id="clip0_22_1598">
<rect width="32" height="32" fill="white" transform="translate(0.5)"/>
</clipPath>
</defs>
</svg>
