<svg width="32" height="33" viewBox="0 0 32 33" fill="none" xmlns="http://www.w3.org/2000/svg">
<g clip-path="url(#clip0_55_5670)">
<path d="M4 16.1992H28" stroke="#0E0304" stroke-width="1.5" stroke-linecap="round" stroke-linejoin="round"/>
<path d="M16 28.1992C22.6274 28.1992 28 22.8266 28 16.1992C28 9.5718 22.6274 4.19922 16 4.19922C9.37258 4.19922 4 9.5718 4 16.1992C4 22.8266 9.37258 28.1992 16 28.1992Z" stroke="#0E0304" stroke-width="1.5" stroke-linecap="round" stroke-linejoin="round"/>
<path d="M21 16.1992C21 24.1992 16 28.1992 16 28.1992C16 28.1992 11 24.1992 11 16.1992C11 8.19922 16 4.19922 16 4.19922C16 4.19922 21 8.19922 21 16.1992Z" stroke="#0E0304" stroke-width="1.5" stroke-linecap="round" stroke-linejoin="round"/>
</g>
<defs>
<clipPath id="clip0_55_5670">
<rect width="32" height="32" fill="white" transform="translate(0 0.199219)"/>
</clipPath>
</defs>
</svg>
