<svg width="32" height="33" viewBox="0 0 32 33" fill="none" xmlns="http://www.w3.org/2000/svg">
<g clip-path="url(#clip0_103_28627)">
<path d="M28 15.1983V27.1983C28 27.4635 27.8946 27.7179 27.7071 27.9054C27.5196 28.0929 27.2652 28.1983 27 28.1983H20C19.7348 28.1983 19.4804 28.0929 19.2929 27.9054C19.1054 27.7179 19 27.4635 19 27.1983V20.6983C19 20.5657 18.9473 20.4385 18.8536 20.3447C18.7598 20.251 18.6326 20.1983 18.5 20.1983H13.5C13.3674 20.1983 13.2402 20.251 13.1464 20.3447C13.0527 20.4385 13 20.5657 13 20.6983V27.1983C13 27.4635 12.8946 27.7179 12.7071 27.9054C12.5196 28.0929 12.2652 28.1983 12 28.1983H5C4.73478 28.1983 4.48043 28.0929 4.29289 27.9054C4.10536 27.7179 4 27.4635 4 27.1983V15.1983C4.00025 14.668 4.21112 14.1594 4.58625 13.7845L14.5863 3.78454C14.9613 3.40975 15.4698 3.19922 16 3.19922C16.5302 3.19922 17.0387 3.40975 17.4137 3.78454L27.4137 13.7845C27.7889 14.1594 27.9998 14.668 28 15.1983Z" fill="black"/>
</g>
<defs>
<clipPath id="clip0_103_28627">
<rect width="32" height="32" fill="white" transform="translate(0 0.199219)"/>
</clipPath>
</defs>
</svg>
