<svg width="369" height="82" viewBox="0 0 369 82" fill="none" xmlns="http://www.w3.org/2000/svg">
<g clip-path="url(#clip0_50_2721)">
<path d="M115.3 33.2988L115.2 21.2988L109.4 30.9988H106.6L100.8 21.5988V33.1988H95V10.7988H100.3L108.2 23.7988L115.9 10.7988H121.2L121.3 33.3988H115.3V33.2988Z" fill="#353535"/>
<path d="M137.8 25.2988V33.3988H131.4V25.1988L122.8 10.7988H129.5L134.8 19.7988L140.1 10.7988H146.3L137.8 25.2988Z" fill="#353535"/>
<path d="M169.4 10.7988V33.3988H163V24.5988H154.3V33.3988H147.9V10.7988H154.3V19.2988H163V10.7988H169.4Z" fill="#F22F2F"/>
<path d="M173.9 10.7988H180.3V33.3988H173.9V10.7988Z" fill="#F22F2F"/>
<path d="M200 21.5996H205.6V30.8996C204.3 31.7996 202.8 32.4996 201.2 32.9996C199.6 33.4996 197.8 33.6996 196.2 33.6996C193.8 33.6996 191.7 33.1996 189.8 32.1996C187.9 31.1996 186.4 29.7996 185.4 27.9996C184.4 26.1996 183.8 24.1996 183.8 21.8996C183.8 19.5996 184.3 17.5996 185.4 15.7996C186.5 13.9996 188 12.5996 189.9 11.5996C191.8 10.5996 194 10.0996 196.4 10.0996C198.5 10.0996 200.4 10.4996 202.1 11.1996C203.8 11.8996 205.2 12.8996 206.3 14.2996L202.2 17.9996C200.7 16.2996 198.8 15.4996 196.7 15.4996C194.8 15.4996 193.2 16.0996 192 17.2996C190.8 18.4996 190.2 19.9996 190.2 21.9996C190.2 23.1996 190.5 24.3996 191 25.2996C191.5 26.2996 192.3 26.9996 193.3 27.5996C194.3 28.0996 195.4 28.3996 196.6 28.3996C197.8 28.3996 199 28.1996 200 27.6996V21.5996Z" fill="#F22F2F"/>
<path d="M231.1 10.7988V33.3988H224.7V24.5988H216V33.3988H209.6V10.7988H216V19.2988H224.7V10.7988H231.1Z" fill="#F22F2F"/>
<path d="M245.5 27.2988H242V33.2988H235.6V10.7988H245.9C247.9 10.7988 249.7 11.0988 251.2 11.7988C252.7 12.4988 253.9 13.3988 254.7 14.6988C255.5 15.9988 255.9 17.3988 255.9 19.0988C255.9 20.6988 255.5 22.1988 254.8 23.3988C254 24.5988 252.9 25.5988 251.5 26.2988L256.4 33.3988H249.6L245.5 27.2988ZM248.5 16.6988C247.8 16.0988 246.8 15.7988 245.5 15.7988H242V22.3988H245.5C246.8 22.3988 247.8 22.0988 248.5 21.4988C249.2 20.8988 249.5 20.0988 249.5 19.0988C249.5 18.0988 249.2 17.2988 248.5 16.6988Z" fill="#353535"/>
<path d="M264.4 32.3004C262.5 31.3004 261 29.9004 259.9 28.1004C258.8 26.3004 258.3 24.3004 258.3 22.1004C258.3 19.9004 258.8 17.9004 259.9 16.1004C261 14.3004 262.5 12.9004 264.4 11.9004C266.3 10.9004 268.4 10.4004 270.8 10.4004C273.2 10.4004 275.3 10.9004 277.2 11.9004C279.1 12.9004 280.6 14.3004 281.7 16.1004C282.8 17.9004 283.3 19.9004 283.3 22.1004C283.3 24.3004 282.8 26.3004 281.7 28.1004C280.6 29.9004 279.1 31.3004 277.2 32.3004C275.3 33.3004 273.2 33.8004 270.8 33.8004C268.5 33.8004 266.3 33.3004 264.4 32.3004ZM273.9 27.7004C274.8 27.2004 275.6 26.4004 276.1 25.4004C276.6 24.4004 276.9 23.3004 276.9 22.0004C276.9 20.7004 276.6 19.6004 276.1 18.6004C275.6 17.6004 274.8 16.9004 273.9 16.3004C273 15.8004 271.9 15.5004 270.8 15.5004C269.7 15.5004 268.6 15.8004 267.7 16.3004C266.8 16.8004 266 17.6004 265.5 18.6004C265 19.6004 264.7 20.7004 264.7 22.0004C264.7 23.3004 265 24.4004 265.5 25.4004C266 26.4004 266.8 27.1004 267.7 27.7004C268.6 28.2004 269.7 28.5004 270.8 28.5004C272 28.5004 273 28.2004 273.9 27.7004Z" fill="#353535"/>
<path d="M286.7 10.7988H293.1V28.2988H303.9V33.3988H286.8V10.7988H286.7Z" fill="#353535"/>
<path d="M306.4 10.7988H312.8V28.2988H323.6V33.3988H306.5V10.7988H306.4Z" fill="#353535"/>
<path d="M344.2 28.3988V33.2988H326.1V10.7988H343.8V15.6988H332.4V19.4988H342.4V24.2988H332.4V28.3988H344.2Z" fill="#353535"/>
<path d="M357.6 27.2988H354.1V33.2988H347.7V10.7988H358C360 10.7988 361.8 11.0988 363.3 11.7988C364.8 12.4988 366 13.3988 366.8 14.6988C367.6 15.9988 368 17.3988 368 19.0988C368 20.6988 367.6 22.1988 366.9 23.3988C366.1 24.5988 365 25.5988 363.6 26.2988L368.5 33.3988H361.7L357.6 27.2988ZM360.6 16.6988C359.9 16.0988 358.9 15.7988 357.6 15.7988H354.1V22.3988H357.6C358.9 22.3988 359.9 22.0988 360.6 21.4988C361.3 20.8988 361.6 20.0988 361.6 19.0988C361.6 18.0988 361.3 17.2988 360.6 16.6988Z" fill="#353535"/>
<path d="M99.8 63.2992C97.9 62.2992 96.4 60.8992 95.4 59.0992C94.3 57.2992 93.8 55.2992 93.8 52.9992C93.8 50.6992 94.3 48.6992 95.4 46.8992C96.5 45.0992 98 43.6992 99.8 42.6992C101.6 41.6992 103.8 41.1992 106.2 41.1992C108.3 41.1992 110.1 41.5992 111.8 42.2992C113.5 42.9992 114.8 44.0992 115.9 45.4992L111.8 49.1992C110.3 47.3992 108.6 46.5992 106.5 46.5992C105.3 46.5992 104.2 46.8992 103.2 47.3992C102.2 47.8992 101.5 48.6992 101 49.6992C100.5 50.6992 100.2 51.7992 100.2 53.0992C100.2 54.3992 100.5 55.4992 101 56.4992C101.5 57.4992 102.3 58.1992 103.2 58.7992C104.2 59.2992 105.2 59.5992 106.5 59.5992C108.6 59.5992 110.4 58.6992 111.8 56.9992L115.9 60.6992C114.8 62.0992 113.4 63.0992 111.8 63.8992C110.1 64.5992 108.3 64.9992 106.2 64.9992C103.8 64.7992 101.7 64.2992 99.8 63.2992Z" fill="#353535"/>
<path d="M133.5 59.9988H124L122.2 64.3988H115.7L125.7 41.7988H132L142 64.3988H135.4L133.5 59.9988ZM131.6 55.2988L128.7 48.0988L125.8 55.2988H131.6Z" fill="#353535"/>
<path d="M165.2 41.7988V64.3988H159.9L149.9 52.3988V64.3988H143.6V41.7988H148.9L158.9 53.7988V41.7988H165.2Z" fill="#353535"/>
<path d="M184.8 59.9988H175.3L173.5 64.3988H167L177 41.7988H183.3L193.3 64.3988H186.7L184.8 59.9988ZM182.9 55.2988L180 47.9988L177.1 55.1988H182.9V55.2988Z" fill="#353535"/>
<path d="M195 41.7988H205.7C208.2 41.7988 210.4 42.2988 212.3 43.1988C214.2 44.0988 215.7 45.3988 216.7 47.0988C217.8 48.7988 218.3 50.7988 218.3 53.0988C218.3 55.3988 217.8 57.3988 216.7 59.0988C215.6 60.7988 214.2 62.0988 212.3 62.9988C210.4 63.8988 208.2 64.3988 205.7 64.3988H195V41.7988ZM205.4 59.2988C207.3 59.2988 208.9 58.7988 210.1 57.6988C211.3 56.5988 211.9 55.0988 211.9 53.1988C211.9 51.2988 211.3 49.7988 210.1 48.6988C208.9 47.5988 207.4 47.0988 205.4 47.0988H201.4V59.4988H205.4V59.2988Z" fill="#353535"/>
<path d="M236.4 59.9988H226.9L225.1 64.3988H218.6L228.6 41.7988H234.9L244.9 64.3988H238.3L236.4 59.9988ZM234.5 55.2988L231.6 48.0988L228.7 55.2988H234.5Z" fill="#353535"/>
<path d="M38.2 0C17.1 0 0 17.1 0 38.2C0 49.8 5.2 60.2 13.4 67.2L26.7 43.2L8.2 29.8H31.1L38.2 8L45.3 29.8H68.2L49.6 43.2L56.7 65L38.2 51.5L19.1 71.2C24.7 74.5 31.2 76.3 38.2 76.3C59.3 76.3 76.4 59.2 76.4 38.1C76.4 17 59.3 0 38.2 0Z" fill="#F22F2F"/>
<path d="M22.3 51.2004L5.59998 81.2004L8.99998 43.4004L22.3 51.2004Z" fill="#F22F2F"/>
</g>
<defs>
<clipPath id="clip0_50_2721">
<rect width="368.5" height="81.2" fill="white"/>
</clipPath>
</defs>
</svg>
