<svg width="32" height="33" viewBox="0 0 32 33" fill="none" xmlns="http://www.w3.org/2000/svg">
<g clip-path="url(#clip0_96_9368)">
<path d="M20.5488 18.3662C20.6872 18.274 20.8465 18.2179 21.0122 18.2028C21.1779 18.1878 21.3447 18.2143 21.4975 18.28L27.3925 20.9212C27.5912 21.0061 27.757 21.1531 27.8651 21.3401C27.9733 21.5271 28.018 21.7442 27.9925 21.9587C27.7983 23.41 27.0836 24.7414 25.9813 25.7052C24.8791 26.6691 23.4642 27.1998 22 27.1987C17.4913 27.1987 13.1673 25.4076 9.97919 22.2195C6.79107 19.0314 5 14.7074 5 10.1987C4.99888 8.73446 5.5296 7.31964 6.49345 6.21737C7.45731 5.1151 8.78869 4.4004 10.24 4.2062C10.4545 4.18072 10.6716 4.2254 10.8586 4.33356C11.0456 4.44172 11.1926 4.60754 11.2775 4.8062L13.9188 10.7062C13.9836 10.8577 14.0101 11.023 13.9957 11.1872C13.9813 11.3514 13.9265 11.5095 13.8363 11.6475L11.165 14.8237C11.0702 14.9667 11.0142 15.1318 11.0024 15.3029C10.9906 15.474 11.0233 15.6453 11.0975 15.8C12.1313 17.9162 14.3188 20.0775 16.4413 21.1012C16.5967 21.1751 16.7688 21.2071 16.9404 21.1942C17.112 21.1812 17.2773 21.1238 17.42 21.0275L20.5488 18.3662Z" stroke="black" stroke-width="1.5" stroke-linecap="round" stroke-linejoin="round"/>
</g>
<defs>
<clipPath id="clip0_96_9368">
<rect width="32" height="32" fill="white" transform="translate(0 0.199219)"/>
</clipPath>
</defs>
</svg>
