<svg width="33" height="32" viewBox="0 0 33 32" fill="none" xmlns="http://www.w3.org/2000/svg">
<g clip-path="url(#clip0_29_3086)">
<path d="M16.5 23.6363L23.34 27.8426C23.5174 27.9503 23.7229 28.003 23.9303 27.994C24.1377 27.985 24.3378 27.9148 24.5053 27.7921C24.6728 27.6694 24.8001 27.4999 24.8713 27.3048C24.9424 27.1098 24.9541 26.898 24.905 26.6963L23.045 18.8476L29.1325 13.5976C29.2877 13.4613 29.3996 13.2825 29.4544 13.0834C29.5091 12.8842 29.5044 12.6734 29.4407 12.4769C29.377 12.2804 29.2572 12.1069 29.096 11.9777C28.9348 11.8485 28.7394 11.7694 28.5337 11.7501L20.545 11.1001L17.4675 3.65007C17.389 3.45787 17.2551 3.29339 17.0828 3.17761C16.9105 3.06183 16.7076 3 16.5 3C16.2924 3 16.0895 3.06183 15.9172 3.17761C15.7449 3.29339 15.6109 3.45787 15.5325 3.65007L12.455 11.1001L4.46622 11.7501C4.25918 11.7683 4.06209 11.847 3.89956 11.9766C3.73704 12.1061 3.61629 12.2807 3.55241 12.4785C3.48853 12.6763 3.48434 12.8885 3.54038 13.0886C3.59641 13.2888 3.71018 13.468 3.86747 13.6038L9.95497 18.8538L8.09497 26.6963C8.0458 26.898 8.05753 27.1098 8.12867 27.3048C8.19981 27.4999 8.32717 27.6694 8.49466 27.7921C8.66215 27.9148 8.86225 27.985 9.06967 27.994C9.27708 28.003 9.48251 27.9503 9.65997 27.8426L16.5 23.6363Z" stroke="#0E0304" stroke-width="2" stroke-linecap="round" stroke-linejoin="round"/>
</g>
<defs>
<clipPath id="clip0_29_3086">
<rect width="32" height="32" fill="white" transform="translate(0.5)"/>
</clipPath>
</defs>
</svg>
