<svg width="33" height="32" viewBox="0 0 33 32" fill="none" xmlns="http://www.w3.org/2000/svg">
<g clip-path="url(#clip0_19_393)">
<path d="M8.51501 18.4752C8.5184 18.5429 8.50798 18.6106 8.48438 18.6742C8.46077 18.7378 8.42448 18.7959 8.37771 18.845C8.33094 18.8941 8.27466 18.9332 8.21231 18.9599C8.14996 18.9866 8.08283 19.0003 8.01501 19.0002H2.50001C2.27431 19.0005 2.05512 18.9245 1.87811 18.7845C1.70109 18.6445 1.57664 18.4487 1.52501 18.2289C1.49286 18.0786 1.49435 17.9229 1.52935 17.7732C1.56436 17.6234 1.63203 17.4832 1.72751 17.3627C2.60977 16.1927 3.78038 15.2714 5.12501 14.6889C4.53467 14.1507 4.0819 13.4788 3.80461 12.7296C3.52732 11.9804 3.4336 11.1756 3.53128 10.3828C3.62897 9.58987 3.91522 8.83193 4.36606 8.17242C4.81691 7.51291 5.41922 6.97103 6.12255 6.59217C6.82588 6.2133 7.60976 6.00849 8.40852 5.99487C9.20729 5.98125 9.99769 6.15923 10.7135 6.51389C11.4294 6.86856 12.0498 7.38959 12.5229 8.03335C12.9959 8.6771 13.3079 9.42484 13.4325 10.2139C13.4486 10.3201 13.4296 10.4285 13.3784 10.5228C13.3272 10.6172 13.2465 10.6922 13.1488 10.7364C11.7618 11.3777 10.5871 12.4022 9.7634 13.6893C8.9397 14.9763 8.50133 16.4721 8.50001 18.0002C8.50001 18.1602 8.50001 18.3177 8.51501 18.4752ZM31.265 17.3614C30.3848 16.1928 29.2169 15.272 27.875 14.6889C28.4654 14.1507 28.9181 13.4788 29.1954 12.7296C29.4727 11.9804 29.5664 11.1756 29.4687 10.3828C29.3711 9.58987 29.0848 8.83193 28.634 8.17242C28.1831 7.51291 27.5808 6.97103 26.8775 6.59217C26.1741 6.2133 25.3903 6.00849 24.5915 5.99487C23.7927 5.98125 23.0023 6.15923 22.2865 6.51389C21.5707 6.86856 20.9502 7.38959 20.4772 8.03335C20.0041 8.6771 19.6922 9.42484 19.5675 10.2139C19.5514 10.3201 19.5704 10.4285 19.6216 10.5228C19.6729 10.6172 19.7535 10.6922 19.8513 10.7364C21.2383 11.3777 22.4129 12.4022 23.2366 13.6893C24.0603 14.9763 24.4987 16.4721 24.5 18.0002C24.5 18.1602 24.5 18.3177 24.485 18.4752C24.4816 18.5429 24.492 18.6106 24.5157 18.6742C24.5393 18.7378 24.5755 18.7959 24.6223 18.845C24.6691 18.8941 24.7254 18.9332 24.7877 18.9599C24.8501 18.9866 24.9172 19.0003 24.985 19.0002H30.5C30.7257 19.0005 30.9449 18.9245 31.1219 18.7845C31.2989 18.6445 31.4234 18.4487 31.475 18.2289C31.5074 18.0783 31.5059 17.9223 31.4706 17.7723C31.4354 17.6223 31.3673 17.482 31.2713 17.3614H31.265ZM20.14 22.7589C21.1357 21.9964 21.8674 20.941 22.2323 19.7411C22.5972 18.5413 22.5769 17.2572 22.1744 16.0694C21.7718 14.8817 21.0071 13.8499 19.9879 13.1191C18.9686 12.3884 17.746 11.9954 16.4919 11.9954C15.2377 11.9954 14.0151 12.3884 12.9959 13.1191C11.9766 13.8499 11.212 14.8817 10.8094 16.0694C10.4068 17.2572 10.3866 18.5413 10.7515 19.7411C11.1164 20.941 11.8481 21.9964 12.8438 22.7589C11.0769 23.5245 9.6016 24.8356 8.63376 26.5002C8.54599 26.6522 8.49978 26.8247 8.49979 27.0002C8.4998 27.1758 8.54603 27.3483 8.63382 27.5003C8.72161 27.6523 8.84788 27.7785 8.99993 27.8663C9.15199 27.9541 9.32446 28.0002 9.50001 28.0002H23.5C23.6756 28.0002 23.848 27.9541 24.0001 27.8663C24.1521 27.7785 24.2784 27.6523 24.3662 27.5003C24.454 27.3483 24.5002 27.1758 24.5002 27.0002C24.5002 26.8247 24.454 26.6522 24.3663 26.5002C23.3964 24.8345 21.9183 23.5233 20.1488 22.7589H20.14Z" fill="#0E0304"/>
</g>
<defs>
<clipPath id="clip0_19_393">
<rect width="32" height="32" fill="white" transform="translate(0.5)"/>
</clipPath>
</defs>
</svg>
