<svg width="32" height="33" viewBox="0 0 32 33" fill="none" xmlns="http://www.w3.org/2000/svg">
<g clip-path="url(#clip0_61_6062)">
<path d="M21.5 15.1992C21.5 16.287 21.1774 17.3504 20.5731 18.2549C19.9687 19.1593 19.1098 19.8643 18.1048 20.2806C17.0998 20.6968 15.9939 20.8058 14.927 20.5935C13.8601 20.3813 12.8801 19.8575 12.1109 19.0883C11.3417 18.3191 10.8179 17.3391 10.6057 16.2722C10.3935 15.2053 10.5024 14.0995 10.9187 13.0945C11.335 12.0895 12.0399 11.2305 12.9444 10.6261C13.8488 10.0218 14.9122 9.69922 16 9.69922C17.4582 9.70087 18.8562 10.2809 19.8873 11.312C20.9184 12.3431 21.4984 13.741 21.5 15.1992ZM29 16.1992C29 18.7704 28.2376 21.2838 26.8091 23.4216C25.3807 25.5595 23.3503 27.2257 20.9749 28.2097C18.5995 29.1936 15.9856 29.451 13.4638 28.9494C10.9421 28.4478 8.6257 27.2097 6.80762 25.3916C4.98953 23.5735 3.75141 21.2571 3.2498 18.7354C2.74819 16.2136 3.00563 13.5998 3.98957 11.2243C4.97351 8.84889 6.63975 6.81857 8.77759 5.39011C10.9154 3.96166 13.4288 3.19922 16 3.19922C19.4467 3.20286 22.7512 4.57367 25.1884 7.01085C27.6256 9.44803 28.9964 12.7525 29 16.1992ZM27 16.1992C26.9984 14.7186 26.6982 13.2536 26.1174 11.8917C25.5366 10.5298 24.6871 9.29896 23.6198 8.27289C22.5524 7.24681 21.289 6.44654 19.9053 5.91992C18.5215 5.3933 17.0457 5.15116 15.5663 5.20797C9.67876 5.43547 4.98376 10.3392 5.00001 16.2305C5.00565 18.9124 5.99478 21.4991 7.78001 23.5005C8.50703 22.446 9.43056 21.5416 10.5 20.8367C10.5912 20.7765 10.6996 20.7478 10.8086 20.755C10.9177 20.7622 11.0213 20.805 11.1038 20.8767C12.4627 22.0522 14.1995 22.699 15.9963 22.699C17.793 22.699 19.5298 22.0522 20.8888 20.8767C20.9712 20.805 21.0749 20.7622 21.1839 20.755C21.2929 20.7478 21.4013 20.7765 21.4925 20.8367C22.5633 21.5412 23.4881 22.4456 24.2163 23.5005C26.0103 21.4918 27.0013 18.8925 27 16.1992Z" fill="#0E0304"/>
</g>
<defs>
<clipPath id="clip0_61_6062">
<rect width="32" height="32" fill="white" transform="translate(0 0.199219)"/>
</clipPath>
</defs>
</svg>
