<svg width="32" height="33" viewBox="0 0 32 33" fill="none" xmlns="http://www.w3.org/2000/svg">
<g clip-path="url(#clip0_81_14838)">
<path d="M16 28.1992C22.6274 28.1992 28 22.8266 28 16.1992C28 9.5718 22.6274 4.19922 16 4.19922C9.37258 4.19922 4 9.5718 4 16.1992C4 22.8266 9.37258 28.1992 16 28.1992Z" stroke="black" stroke-width="1.5" stroke-linecap="round" stroke-linejoin="round"/>
<path d="M16 17.1992V10.1992" stroke="black" stroke-width="1.5" stroke-linecap="round" stroke-linejoin="round"/>
<path d="M16 22.9492C16.6904 22.9492 17.25 22.3896 17.25 21.6992C17.25 21.0089 16.6904 20.4492 16 20.4492C15.3096 20.4492 14.75 21.0089 14.75 21.6992C14.75 22.3896 15.3096 22.9492 16 22.9492Z" fill="black"/>
</g>
<defs>
<clipPath id="clip0_81_14838">
<rect width="32" height="32" fill="white" transform="translate(0 0.199219)"/>
</clipPath>
</defs>
</svg>
