<svg width="32" height="33" viewBox="0 0 32 33" fill="none" xmlns="http://www.w3.org/2000/svg">
<g clip-path="url(#clip0_81_14850)">
<path d="M16 3.19922C13.4288 3.19922 10.9154 3.96166 8.77759 5.39011C6.63975 6.81857 4.97351 8.84889 3.98957 11.2243C3.00563 13.5998 2.74819 16.2136 3.2498 18.7354C3.75141 21.2571 4.98953 23.5735 6.80762 25.3916C8.6257 27.2097 10.9421 28.4478 13.4638 28.9494C15.9856 29.451 18.5995 29.1936 20.9749 28.2097C23.3503 27.2257 25.3807 25.5595 26.8091 23.4216C28.2376 21.2838 29 18.7704 29 16.1992C28.9964 12.7525 27.6256 9.44803 25.1884 7.01085C22.7512 4.57367 19.4467 3.20286 16 3.19922ZM15 10.1992C15 9.934 15.1054 9.67965 15.2929 9.49211C15.4804 9.30458 15.7348 9.19922 16 9.19922C16.2652 9.19922 16.5196 9.30458 16.7071 9.49211C16.8946 9.67965 17 9.934 17 10.1992V17.1992C17 17.4644 16.8946 17.7188 16.7071 17.9063C16.5196 18.0939 16.2652 18.1992 16 18.1992C15.7348 18.1992 15.4804 18.0939 15.2929 17.9063C15.1054 17.7188 15 17.4644 15 17.1992V10.1992ZM16 23.1992C15.7033 23.1992 15.4133 23.1112 15.1667 22.9464C14.92 22.7816 14.7277 22.5473 14.6142 22.2732C14.5007 21.9992 14.471 21.6976 14.5288 21.4066C14.5867 21.1156 14.7296 20.8483 14.9393 20.6386C15.1491 20.4288 15.4164 20.2859 15.7074 20.228C15.9983 20.1702 16.2999 20.1999 16.574 20.3134C16.8481 20.4269 17.0824 20.6192 17.2472 20.8659C17.412 21.1125 17.5 21.4025 17.5 21.6992C17.5 22.097 17.342 22.4786 17.0607 22.7599C16.7794 23.0412 16.3978 23.1992 16 23.1992Z" fill="#0E0304"/>
</g>
<defs>
<clipPath id="clip0_81_14850">
<rect width="32" height="32" fill="white" transform="translate(0 0.199219)"/>
</clipPath>
</defs>
</svg>
