<svg width="32" height="33" viewBox="0 0 32 33" fill="none" xmlns="http://www.w3.org/2000/svg">
<g clip-path="url(#clip0_95_9150)">
<path d="M20 16.1992L14 12.1992V20.1992L20 16.1992Z" stroke="#0E0304" stroke-width="1.5" stroke-linecap="round" stroke-linejoin="round"/>
<path d="M3 16.1993C3 19.9381 3.38375 22.1306 3.67625 23.2581C3.7536 23.5648 3.90258 23.8487 4.11096 24.0867C4.31935 24.3246 4.58119 24.5097 4.875 24.6268C9.065 26.2431 16 26.1993 16 26.1993C16 26.1993 22.935 26.2431 27.125 24.6268C27.4197 24.5104 27.6826 24.3255 27.8919 24.0876C28.1012 23.8496 28.2509 23.5653 28.3288 23.2581C28.6213 22.1331 29.005 19.9381 29.005 16.1993C29.005 12.4606 28.6213 10.2681 28.3288 9.14058C28.2518 8.83224 28.1024 8.54668 27.8931 8.30756C27.6838 8.06844 27.4205 7.88265 27.125 7.76558C22.935 6.15558 16 6.19933 16 6.19933C16 6.19933 9.065 6.15559 4.875 7.77184C4.57954 7.8889 4.31623 8.07469 4.1069 8.31381C3.89756 8.55293 3.74822 8.83849 3.67125 9.14684C3.38375 10.2668 3 12.4606 3 16.1993Z" stroke="#0E0304" stroke-width="1.5" stroke-linecap="round" stroke-linejoin="round"/>
</g>
<defs>
<clipPath id="clip0_95_9150">
<rect width="32" height="32" fill="white" transform="translate(0 0.199219)"/>
</clipPath>
</defs>
</svg>
